<?xml version="1.0" encoding="iso-8859-1"?>
<!-- Generator: Adobe Illustrator 24.1.3, SVG Export Plug-In . SVG Version: 6.00 Build 0)  -->
<svg version="1.1" id="Layer_1" xmlns="http://www.w3.org/2000/svg" xmlns:xlink="http://www.w3.org/1999/xlink" x="0px" y="0px"
	 viewBox="0 0 576.5 289.5" style="enable-background:new 0 0 576.5 289.5;" xml:space="preserve">
<g>
	<rect y="1.5" style="fill:#FFFFFF;" width="576" height="288"/>
	<g>
		<defs>
			<rect id="SVGID_1_" x="0.5" width="576" height="288"/>
		</defs>
		<clipPath id="SVGID_2_">
			<use xlink:href="#SVGID_1_"  style="overflow:visible;"/>
		</clipPath>
		<g style="clip-path:url(#SVGID_2_);">
			<g>
				<g id="triangle36_1455_">
					<path style="fill:#C4C4C4;" d="M602.175-49.486L546.131-80.46l15.113-13.529l41.004,30.145l0.003-0.581L561.369-94.48
						c-0.09-0.066-0.213-0.06-0.295,0.014l-15.501,13.877c-0.057,0.051-0.085,0.126-0.077,0.201c0.008,0.076,0.053,0.142,0.12,0.179
						l56.557,31.257L602.175-49.486z"/>
				</g>
				<g id="triangle36_1454_">
					<path style="fill:#C4C4C4;" d="M601.958-7.106l-55.366-72.563l55.579,30.717l0.003-0.534l-56.333-31.133
						c-0.097-0.055-0.219-0.033-0.291,0.052c-0.073,0.084-0.076,0.208-0.009,0.296l56.412,73.935L601.958-7.106z"/>
				</g>
				<g id="triangle36_1451_">
					<path style="fill:#C4C4C4;" d="M373.459,339.306l75.391-33.993l7.389,34.416l0.481,0.003l-7.472-34.801
						c-0.015-0.069-0.06-0.128-0.123-0.16c-0.064-0.032-0.139-0.034-0.202-0.005L372.329,339.3L373.459,339.306z"/>
				</g>
				<g id="triangle36_1439_">
					<polygon style="fill:#C4C4C4;" points="600.267,324.413 550.808,340.211 552.326,340.219 600.264,324.906 					"/>
				</g>
				<g id="triangle36_1423_">
					<path style="fill:#C4C4C4;" d="M602.251-64.425l-40.337-29.654l40.495-1.344l0.002-0.47l-41.19,1.367
						c-0.1,0.004-0.187,0.07-0.216,0.165c-0.029,0.096,0.005,0.199,0.085,0.258l41.157,30.258L602.251-64.425z"/>
				</g>
				<g id="triangle36_1422_">
					<path style="fill:#C4C4C4;" d="M601.389,104.511l-54.588-3.218l44.105-26.744l10.595,8.249l0.003-0.593l-10.437-8.126
						c-0.076-0.059-0.181-0.066-0.266-0.015l-44.887,27.218c-0.088,0.053-0.13,0.157-0.106,0.257s0.111,0.172,0.214,0.177
						l55.366,3.264L601.389,104.511z"/>
				</g>
				<g id="triangle36_1420_">
					<path style="fill:#C4C4C4;" d="M196.296,338.402l8.992-15.336l1.813,15.391l0.473,0.002l-1.901-16.142
						c-0.012-0.1-0.086-0.182-0.185-0.203c-0.097-0.021-0.199,0.024-0.25,0.111l-9.483,16.174L196.296,338.402z"/>
				</g>
				<g id="triangle36_1419_">
					<polygon style="fill:#C4C4C4;" points="600.267,324.413 550.808,340.211 552.326,340.219 600.264,324.906 					"/>
					<path style="fill:#C4C4C4;" d="M600.28,321.862l-51.854-12.881c-0.125-0.027-0.252,0.046-0.284,0.17l-7.847,31.007l0.483,0.003
						l7.762-30.668l51.738,12.852L600.28,321.862z"/>
				</g>
				<g id="triangle36_1418_">
					<path style="fill:#C4C4C4;" d="M600.828,214.434l-28.33,16.259l-21.396-5.716l49.769-19.058l0.003-0.503l-50.616,19.382
						c-0.095,0.036-0.156,0.13-0.15,0.231c0.005,0.102,0.076,0.188,0.173,0.214l22.189,5.928c0.02,0.005,0.04,0.008,0.06,0.008
						c0.041,0,0.082-0.01,0.118-0.031l28.177-16.171L600.828,214.434z"/>
				</g>
				<g id="triangle36_1417_">
					<path style="fill:#C4C4C4;" d="M456.72,339.731l-7.384-34.389l28.617,10.153l-12.362,24.281l0.525,0.003l12.376-24.309
						c0.031-0.06,0.034-0.13,0.009-0.193c-0.025-0.063-0.076-0.112-0.139-0.134l-29.265-10.384c-0.079-0.03-0.169-0.011-0.233,0.045
						c-0.064,0.056-0.092,0.143-0.074,0.225l7.45,34.7L456.72,339.731z"/>
				</g>
				<g id="triangle36_1416_">
					<path style="fill:#C4C4C4;" d="M466.117,339.779l12.188-23.941l15.163,24.08l0.557,0.003l-15.543-24.683
						c-0.045-0.072-0.125-0.122-0.209-0.109c-0.084,0.004-0.16,0.052-0.198,0.128l-12.483,24.519L466.117,339.779z"/>
				</g>
				<g id="triangle36_1415_">
					<path style="fill:#C4C4C4;" d="M493.469,339.919l0.556,0.003l-15.117-24.006l51.663,24.193l1.119,0.006l-53.307-24.963
						c-0.094-0.045-0.206-0.021-0.275,0.057c-0.069,0.078-0.078,0.192-0.023,0.28L493.469,339.919z"/>
				</g>
				<g id="triangle36_1414_">
					<path style="fill:#C4C4C4;" d="M478.184,315.576l52.387,24.532l1.119,0.006l-52.517-24.593l68.887-6.05l-7.767,30.686
						l0.483,0.003l7.819-30.894c0.019-0.074,0-0.152-0.049-0.21c-0.049-0.058-0.127-0.086-0.199-0.082l-70.085,6.155
						c-0.106,0.009-0.192,0.088-0.211,0.193C478.034,315.427,478.088,315.531,478.184,315.576z"/>
				</g>
				<g id="triangle36_1412_">
					<path style="fill:#C4C4C4;" d="M207.573,338.46l-1.843-15.647l24.372,15.762l0.871,0.004l-25.406-16.431
						c-0.076-0.049-0.174-0.05-0.252-0.002c-0.077,0.048-0.119,0.137-0.109,0.226l1.895,16.085L207.573,338.46z"/>
				</g>
				<g id="triangle36_1411_">
					<path style="fill:#C4C4C4;" d="M363.245,180.334c-0.041,0-0.081-0.011-0.117-0.032c-0.058-0.034-0.099-0.09-0.112-0.156
						l-2.409-11.643c-0.013-0.064,0.001-0.132,0.04-0.185c0.039-0.053,0.098-0.088,0.163-0.095l59.596-6.906
						c0.127-0.019,0.231,0.065,0.257,0.183c0.026,0.118-0.042,0.236-0.157,0.273l-57.187,18.549
						C363.294,180.331,363.27,180.335,363.245,180.334z M361.119,168.661l2.304,11.135l54.694-17.74L361.119,168.661z"/>
				</g>
				<g id="triangle36_1409_">
					<path style="fill:#C4C4C4;" d="M174.264,338.29l3.074-33.595l27.785,17.726l-9.369,15.978l0.542,0.003l9.345-15.939
						c0.064-0.109,0.03-0.249-0.076-0.317l-28.3-18.055c-0.069-0.043-0.157-0.048-0.23-0.013c-0.074,0.036-0.123,0.108-0.13,0.19
						l-3.113,34.019L174.264,338.29z"/>
				</g>
				<g id="triangle36_1408_">
					<path style="fill:#C4C4C4;" d="M205.438,322.579c-0.044,0-0.087-0.013-0.125-0.037l-28.3-18.055
						c-0.066-0.042-0.107-0.114-0.109-0.193c-0.001-0.078,0.036-0.152,0.1-0.197l48.316-33.946c0.084-0.06,0.198-0.056,0.279,0.007
						c0.081,0.064,0.112,0.173,0.075,0.269l-20.016,52.001c-0.026,0.066-0.079,0.117-0.146,0.139
						C205.488,322.575,205.463,322.579,205.438,322.579z M177.561,304.28l27.762,17.712l19.636-51.013L177.561,304.28z"/>
				</g>
				<g id="triangle36_1407_">
					<path style="fill:#C4C4C4;" d="M291.224,323.947c-0.001,0-0.002,0-0.003,0l-85.786-1.368c-0.077-0.001-0.148-0.04-0.191-0.103
						c-0.043-0.064-0.052-0.144-0.025-0.216l20.016-52.001c0.027-0.07,0.086-0.123,0.158-0.143c0.073-0.019,0.15-0.003,0.209,0.045
						l65.77,53.369c0.078,0.063,0.107,0.168,0.072,0.262C291.411,323.886,291.323,323.948,291.224,323.947z M205.779,322.115
						l84.771,1.352l-64.992-52.738L205.779,322.115z"/>
				</g>
				<g id="triangle36_1406_">
					<path style="fill:#C4C4C4;" d="M230.102,338.575l0.871,0.004l-24.719-15.987l84.084,1.341l-26.887,14.812l0.963,0.005
						l26.923-14.831c0.093-0.051,0.14-0.159,0.115-0.262c-0.026-0.103-0.117-0.176-0.224-0.178l-85.786-1.368h-0.003
						c-0.104-0.001-0.195,0.067-0.226,0.167c-0.03,0.1,0.009,0.208,0.097,0.265L230.102,338.575z"/>
				</g>
				<g id="triangle36_1405_">
					<path style="fill:#C4C4C4;" d="M264.415,338.75l26.145-14.403l-8.902,14.491l0.549,0.003l9.218-15.005
						c0.055-0.091,0.043-0.208-0.03-0.285c-0.073-0.077-0.191-0.096-0.283-0.044l-27.661,15.238L264.415,338.75z"/>
				</g>
				<g id="triangle36_1404_">
					<path style="fill:#C4C4C4;" d="M282.207,338.841l9.124-14.852l51.953,15.164l1.704,0.009l-53.698-15.673
						c-0.103-0.033-0.21,0.013-0.266,0.102l-9.367,15.248L282.207,338.841z"/>
				</g>
				<g id="triangle36_1382_">
					<path style="fill:#C4C4C4;" d="M519.601,201.601c-0.029,0-0.058-0.006-0.086-0.017l-99.169-39.816
						c-0.077-0.031-0.132-0.1-0.145-0.182c-0.012-0.082,0.019-0.164,0.083-0.217l50.206-41.38c0.053-0.044,0.121-0.064,0.189-0.05
						c0.067,0.011,0.126,0.052,0.161,0.11l48.963,81.196c0.052,0.087,0.043,0.196-0.022,0.274
						C519.735,201.573,519.668,201.602,519.601,201.601z M420.888,161.48l98.151,39.408l-48.461-80.363L420.888,161.48z"/>
				</g>
				<g id="triangle36_1381_">
					<path style="fill:#C4C4C4;" d="M519.601,201.601c-0.08,0-0.156-0.042-0.2-0.113l-48.963-81.196
						c-0.034-0.058-0.043-0.128-0.023-0.192c0.02-0.064,0.067-0.117,0.128-0.144l41.139-18.398c0.068-0.032,0.15-0.027,0.215,0.012
						c0.066,0.039,0.108,0.107,0.114,0.183l7.824,99.594c0.009,0.109-0.058,0.209-0.162,0.242
						C519.65,201.598,519.625,201.602,519.601,201.601z M470.977,120.277l48.313,80.119l-7.72-98.272L470.977,120.277z"/>
				</g>
				<g id="triangle36_1380_">
					<path style="fill:#C4C4C4;" d="M519.601,201.601c-0.006,0-0.013-0.001-0.02-0.001c-0.114-0.01-0.204-0.101-0.213-0.215
						l-7.824-99.594c-0.005-0.065,0.017-0.129,0.061-0.177c0.044-0.048,0.106-0.076,0.171-0.076l34.257-0.29
						c0.049,0.01,0.142,0.033,0.187,0.091c0.045,0.058,0.06,0.133,0.042,0.204l-26.433,99.884
						C519.801,201.531,519.707,201.602,519.601,201.601z M512.031,102.005l7.696,97.968l26.002-98.254L512.031,102.005z"/>
				</g>
				<g id="triangle36_1379_">
					<path style="fill:#C4C4C4;" d="M600.874,205.415l-50.493,19.335l-30.172-23.213l80.729-8.651l0.002-0.472l-81.364,8.72
						c-0.095,0.01-0.175,0.077-0.201,0.17c-0.026,0.092,0.007,0.191,0.083,0.249l30.74,23.649c0.041,0.032,0.091,0.049,0.142,0.049
						c0.029,0,0.057-0.005,0.085-0.016l50.445-19.316L600.874,205.415z"/>
				</g>
				<g id="triangle36_1378_">
					<path style="fill:#C4C4C4;" d="M511.777,102.008c-0.095,0-0.18-0.058-0.216-0.146c-0.036-0.089-0.015-0.191,0.055-0.258
						l34.113-32.623c0.069-0.065,0.168-0.083,0.254-0.046c0.086,0.037,0.142,0.121,0.143,0.215l0.143,32.332
						c0.001,0.129-0.103,0.235-0.233,0.236l-34.257,0.29C511.779,102.008,511.777,102.008,511.777,102.008z M545.659,69.697
						l-33.291,31.837l33.431-0.284L545.659,69.697z"/>
				</g>
				<g id="triangle36_1377_">
					<path style="fill:#C4C4C4;" d="M601.709,41.873l-55.583,26.903l-0.161-148.495l55.991,73.381l0.004-0.769l-56.044-73.45
						c-0.061-0.08-0.167-0.112-0.262-0.08c-0.095,0.032-0.159,0.122-0.159,0.222l0.162,149.564c0,0.081,0.042,0.156,0.11,0.199
						c0.038,0.024,0.081,0.036,0.124,0.036c0.035,0,0.071-0.007,0.103-0.023l55.713-26.966L601.709,41.873z"/>
				</g>
				<g id="triangle36_1376_">
					<path style="fill:#C4C4C4;" d="M546.033,101.717c-0.039,0-0.078-0.01-0.113-0.03c-0.074-0.041-0.12-0.119-0.12-0.204
						l-0.143-32.333c0-0.067,0.028-0.131,0.078-0.176c0.05-0.045,0.118-0.064,0.183-0.059l45.031,5.114
						c0.1,0.012,0.181,0.085,0.203,0.183c0.021,0.098-0.022,0.199-0.108,0.251l-44.887,27.218
						C546.119,101.706,546.076,101.718,546.033,101.717z M546.127,69.413l0.141,31.654l43.945-26.648L546.127,69.413z"/>
				</g>
				<g id="triangle36_1375_">
					<path style="fill:#C4C4C4;" d="M601.61,61.195l-10.787,12.822l-44.1-5.009l54.983-26.613l0.003-0.523l-55.919,27.066
						c-0.094,0.046-0.147,0.148-0.129,0.251c0.017,0.103,0.101,0.182,0.205,0.194l45.031,5.114c0.008,0.001,0.017,0.001,0.025,0.002
						c0.069,0,0.136-0.03,0.181-0.084l10.505-12.487L601.61,61.195z"/>
				</g>
				<g id="triangle36_1374_">
					<path style="fill:#C4C4C4;" d="M601.518,79.271l-10.224-5.084l10.313-12.258l0.004-0.733l-10.868,12.918
						c-0.047,0.055-0.065,0.128-0.051,0.199c0.015,0.07,0.061,0.13,0.125,0.162l10.698,5.32L601.518,79.271z"/>
				</g>
				<g id="triangle36_1373_">
					<path style="fill:#C4C4C4;" d="M601.503,82.206l-8.593-6.691l8.605,4.279l0.003-0.523l-10.491-5.217
						c-0.108-0.053-0.239-0.016-0.303,0.086c-0.064,0.102-0.041,0.236,0.055,0.31l10.722,8.348L601.503,82.206z"/>
				</g>
				<g id="triangle36_1366_">
					<path style="fill:#C4C4C4;" d="M291.159,323.938l52.125,15.214l1.704,0.009l-53.133-15.509l94.252-48.517l-22.77,64.119
						l0.497,0.003l22.913-64.523c0.033-0.091,0.006-0.192-0.066-0.255c-0.073-0.064-0.177-0.076-0.262-0.032l-95.302,49.058
						c-0.085,0.044-0.135,0.135-0.126,0.231C291.001,323.831,291.067,323.911,291.159,323.938z"/>
				</g>
				<g id="triangle36_1365_">
					<path style="fill:#C4C4C4;" d="M363.834,339.257l22.826-64.276l61.806,29.991L372.329,339.3l1.13,0.006l75.657-34.112
						c0.083-0.038,0.137-0.12,0.138-0.21c0.001-0.091-0.051-0.175-0.132-0.215l-62.493-30.325c-0.06-0.028-0.129-0.03-0.192-0.006
						c-0.062,0.025-0.109,0.076-0.132,0.139l-22.968,64.678L363.834,339.257z"/>
				</g>
				<g id="triangle36_1363_">
					<path style="fill:#C4C4C4;" d="M390.606,200.943c-0.05,0-0.099-0.016-0.14-0.047l-27.361-20.609
						c-0.093-0.07-0.12-0.197-0.065-0.3c0.056-0.102,0.179-0.148,0.286-0.109l43.433,15.806c0.095,0.034,0.157,0.126,0.154,0.227
						c-0.003,0.101-0.071,0.189-0.168,0.218l-16.072,4.803C390.652,200.94,390.629,200.943,390.606,200.943z M364.642,180.857
						l26.011,19.592l15.279-4.566L364.642,180.857z"/>
				</g>
				<g id="triangle36_1362_">
					<path style="fill:#C4C4C4;" d="M406.678,196.14c-0.026,0-0.053-0.005-0.079-0.014l-43.433-15.806
						c-0.094-0.034-0.156-0.125-0.154-0.225c0.002-0.1,0.067-0.188,0.162-0.219l57.187-18.549c0.084-0.03,0.181-0.004,0.243,0.063
						c0.063,0.067,0.08,0.163,0.046,0.248l-13.754,34.355C406.86,196.085,406.772,196.141,406.678,196.14z M363.967,180.113
						l42.579,15.495l13.483-33.679L363.967,180.113z"/>
				</g>
				<g id="triangle36_1361_">
					<path style="fill:#C4C4C4;" d="M386.525,274.89c-0.012,0-0.023-0.001-0.034-0.003c-0.12-0.018-0.206-0.124-0.199-0.245
						l4.081-73.947c0.005-0.098,0.072-0.183,0.167-0.212l16.072-4.803c0.08-0.025,0.169-0.003,0.23,0.056
						c0.061,0.059,0.085,0.145,0.065,0.227l-20.153,78.749C386.727,274.819,386.632,274.89,386.525,274.89z M390.832,200.886
						l-3.939,71.392l19.456-76.029L390.832,200.886z"/>
				</g>
				<g id="triangle36_1360_">
					<path style="fill:#C4C4C4;" d="M519.601,201.601c-0.003,0-0.007,0-0.01,0l-112.923-5.461c-0.076-0.004-0.145-0.044-0.186-0.108
						c-0.041-0.064-0.049-0.144-0.021-0.214l13.754-34.355c0.023-0.058,0.068-0.104,0.125-0.129c0.058-0.025,0.122-0.025,0.18-0.002
						l99.169,39.816c0.107,0.043,0.166,0.156,0.142,0.268C519.807,201.525,519.711,201.602,519.601,201.601z M407.02,195.687
						l111.201,5.378l-97.657-39.209L407.02,195.687z"/>
				</g>
				<g id="triangle36_1359_">
					<path style="fill:#C4C4C4;" d="M420.432,161.786c-0.029,0-0.058-0.005-0.085-0.016c-0.079-0.032-0.136-0.103-0.146-0.188
						l-11.578-89.611c-0.012-0.094,0.034-0.187,0.116-0.234c0.082-0.048,0.185-0.04,0.261,0.019l61.784,48.231
						c0.056,0.044,0.089,0.11,0.09,0.182c0.001,0.071-0.03,0.139-0.085,0.184l-50.206,41.38
						C420.539,161.767,420.486,161.786,420.432,161.786z M409.161,72.476l11.451,88.624l49.652-40.924L409.161,72.476z"/>
				</g>
				<g id="triangle36_1358_">
					<path style="fill:#C4C4C4;" d="M470.638,120.406c-0.051,0-0.101-0.017-0.143-0.05l-61.784-48.231
						c-0.065-0.051-0.098-0.132-0.089-0.213c0.01-0.081,0.062-0.152,0.137-0.186l53.821-24.148c0.069-0.031,0.148-0.027,0.213,0.01
						c0.065,0.038,0.108,0.104,0.117,0.178l7.963,72.38c0.01,0.094-0.037,0.185-0.119,0.231
						C470.717,120.396,470.677,120.406,470.638,120.406z M409.306,71.994l61.038,47.65l-7.867-71.507L409.306,71.994z"/>
				</g>
				<g id="triangle36_1357_">
					<path style="fill:#C4C4C4;" d="M462.675,48.026c-0.013,0-0.026-0.001-0.038-0.003c-0.092-0.016-0.166-0.085-0.188-0.176
						L436.76-58.817c-0.015-0.062-0.004-0.127,0.03-0.181c0.035-0.054,0.089-0.091,0.152-0.104l108.74-21.542
						c0.091-0.018,0.187,0.021,0.24,0.099c0.053,0.078,0.054,0.18,0.003,0.259L462.873,47.919
						C462.829,47.987,462.754,48.026,462.675,48.026z M437.274-58.689l25.502,105.895L545.23-80.076L437.274-58.689z"/>
				</g>
				<g id="triangle36_1356_">
					<path style="fill:#C4C4C4;" d="M470.638,120.406c-0.04,0-0.08-0.01-0.115-0.031c-0.065-0.037-0.108-0.104-0.117-0.178
						l-7.963-72.38c-0.011-0.101,0.044-0.198,0.137-0.24c0.092-0.041,0.201-0.019,0.27,0.056l49.102,53.982
						c0.051,0.055,0.071,0.132,0.056,0.206c-0.016,0.074-0.065,0.136-0.134,0.166l-41.139,18.398
						C470.704,120.399,470.671,120.406,470.638,120.406z M462.988,48.483l7.849,71.342l40.549-18.134L462.988,48.483z"/>
				</g>
				<g id="triangle36_1355_">
					<path style="fill:#C4C4C4;" d="M511.777,102.008c-0.002,0-0.005,0-0.007,0c-0.063-0.002-0.123-0.03-0.166-0.077l-49.102-53.982
						c-0.07-0.076-0.081-0.19-0.027-0.279c0.054-0.088,0.157-0.132,0.259-0.106l83.215,21.359c0.082,0.021,0.147,0.086,0.169,0.168
						c0.022,0.083-0.004,0.17-0.065,0.229l-34.113,32.623C511.896,101.985,511.837,102.008,511.777,102.008z M463.377,48.214
						l48.412,53.224l33.634-32.165L463.377,48.214z"/>
				</g>
				<g id="triangle36_1353_">
					<path style="fill:#C4C4C4;" d="M545.89,69.385c-0.019,0-0.039-0.003-0.057-0.007l-83.215-21.359
						c-0.073-0.019-0.133-0.072-0.16-0.142c-0.028-0.07-0.019-0.15,0.022-0.213l83.052-128.205c0.056-0.088,0.161-0.127,0.263-0.098
						c0.1,0.029,0.168,0.121,0.168,0.225l0.162,149.564c0,0.072-0.033,0.141-0.091,0.186
						C545.993,69.368,545.942,69.385,545.89,69.385z M463.05,47.645l82.606,21.202l-0.161-148.469L463.05,47.645z"/>
				</g>
				<g id="triangle36_1343_">
					<path style="fill:#C4C4C4;" d="M386.525,274.89c-0.064,0-0.125-0.027-0.17-0.074c-0.055-0.059-0.076-0.141-0.056-0.218
						l20.153-78.75c0.019-0.075,0.074-0.135,0.145-0.162c0.072-0.027,0.154-0.017,0.216,0.027l85.492,59.052
						c0.078,0.054,0.116,0.15,0.096,0.242c-0.02,0.093-0.093,0.164-0.186,0.182l-105.645,19.697
						C386.555,274.888,386.54,274.89,386.525,274.89z M406.823,196.29l-19.978,78.067l104.728-19.526L406.823,196.29z"/>
				</g>
				<g id="triangle36_1342_">
					<path style="fill:#C4C4C4;" d="M449.018,305.214c-0.034,0-0.069-0.008-0.101-0.023l-62.493-30.325
						c-0.091-0.044-0.144-0.142-0.13-0.243c0.014-0.1,0.09-0.181,0.19-0.199l105.645-19.697c0.098-0.018,0.196,0.028,0.246,0.114
						c0.049,0.086,0.039,0.195-0.026,0.27l-43.152,50.022C449.151,305.186,449.085,305.215,449.018,305.214z M387.27,274.755
						l61.689,29.935l42.597-49.378L387.27,274.755z"/>
				</g>
				<g id="triangle36_1341_">
					<path style="fill:#C4C4C4;" d="M492.17,255.193c-0.047,0-0.093-0.015-0.132-0.042l-85.492-59.052
						c-0.086-0.059-0.122-0.169-0.089-0.269c0.033-0.099,0.134-0.16,0.234-0.159l112.923,5.461c0.08,0.004,0.152,0.048,0.192,0.117
						c0.04,0.069,0.042,0.154,0.006,0.225l-27.431,53.591c-0.031,0.06-0.086,0.104-0.151,0.121
						C492.209,255.191,492.19,255.193,492.17,255.193z M407.489,196.18l84.595,58.433l27.143-53.029L407.489,196.18z"/>
				</g>
				<g id="triangle36_1340_">
					<path style="fill:#C4C4C4;" d="M478.283,315.598c-0.026,0-0.052-0.004-0.077-0.014l-29.265-10.384
						c-0.073-0.026-0.128-0.086-0.148-0.161c-0.02-0.075-0.001-0.155,0.049-0.213l43.152-50.022c0.07-0.082,0.187-0.104,0.284-0.056
						c0.096,0.049,0.147,0.157,0.123,0.262l-13.887,60.405c-0.015,0.066-0.057,0.121-0.116,0.153
						C478.362,315.588,478.322,315.598,478.283,315.598z M449.421,304.873l28.694,10.181l13.616-59.226L449.421,304.873z"/>
				</g>
				<g id="triangle36_1339_">
					<path style="fill:#C4C4C4;" d="M478.283,315.598c-0.067,0-0.131-0.03-0.176-0.081c-0.05-0.057-0.069-0.133-0.052-0.206
						l13.887-60.406c0.019-0.082,0.081-0.148,0.162-0.172c0.081-0.023,0.169-0.002,0.23,0.056l56.198,54.25
						c0.066,0.064,0.089,0.16,0.058,0.247c-0.031,0.087-0.109,0.147-0.201,0.156l-70.085,6.155
						C478.297,315.598,478.29,315.598,478.283,315.598z M492.307,255.415l-13.721,59.686l69.251-6.082L492.307,255.415z"/>
				</g>
				<g id="triangle36_1338_">
					<path style="fill:#C4C4C4;" d="M492.17,255.193c-0.061,0-0.12-0.024-0.165-0.069c-0.072-0.072-0.089-0.182-0.043-0.273
						l27.431-53.591c0.032-0.062,0.089-0.107,0.157-0.122c0.069-0.016,0.139,0.001,0.195,0.043l30.74,23.65
						c0.064,0.049,0.098,0.127,0.091,0.207c-0.007,0.08-0.055,0.15-0.126,0.187l-58.171,29.942
						C492.244,255.184,492.207,255.193,492.17,255.193z M519.682,201.725l-26.97,52.691l57.194-29.438L519.682,201.725z"/>
				</g>
				<g id="triangle36_1337_">
					<path style="fill:#C4C4C4;" d="M548.368,309.443c-0.06,0-0.118-0.023-0.162-0.066l-56.198-54.25
						c-0.06-0.058-0.085-0.143-0.065-0.224c0.02-0.081,0.081-0.145,0.161-0.169l80.36-24.013c0.083-0.024,0.173-0.002,0.234,0.06
						c0.061,0.061,0.083,0.152,0.057,0.235l-24.162,78.264c-0.024,0.078-0.087,0.138-0.166,0.158
						C548.408,309.44,548.388,309.443,548.368,309.443z M492.623,255.068l55.635,53.707l23.92-77.479L492.623,255.068z"/>
				</g>
				<g id="triangle36_1336_">
					<path style="fill:#C4C4C4;" d="M492.17,255.193c-0.093-0.001-0.18-0.056-0.216-0.147c-0.045-0.113,0.003-0.241,0.11-0.297
						l58.171-29.942c0.052-0.026,0.11-0.033,0.168-0.018l22.189,5.928c0.101,0.027,0.172,0.118,0.174,0.223
						c0.001,0.105-0.067,0.198-0.168,0.228l-80.36,24.013C492.216,255.19,492.192,255.193,492.17,255.193z M550.369,225.266
						l-55.841,28.743l77.142-23.052L550.369,225.266z"/>
				</g>
				<g id="triangle36_1324_">
					<path style="fill:#C4C4C4;" d="M145.142,285.055c-0.096,0-0.184-0.061-0.219-0.153c-0.04-0.107,0.003-0.226,0.101-0.284
						l66.549-38.97c0.055-0.032,0.121-0.04,0.18-0.024c0.061,0.016,0.113,0.057,0.143,0.112l13.763,24.493
						c0.037,0.066,0.04,0.146,0.008,0.215c-0.033,0.069-0.096,0.117-0.171,0.131l-80.312,14.477
						C145.17,285.054,145.156,285.055,145.142,285.055z M211.605,246.174l-65.203,38.181l78.687-14.184L211.605,246.174z"/>
				</g>
				<g id="triangle36_1322_">
					<path style="fill:#C4C4C4;" d="M225.454,270.578c-0.007,0-0.014,0-0.021-0.001c-0.077-0.007-0.145-0.052-0.183-0.119
						l-13.763-24.493c-0.037-0.066-0.04-0.145-0.009-0.213c0.032-0.068,0.094-0.117,0.167-0.132l41.087-8.164
						c0.096-0.019,0.196,0.025,0.247,0.111c0.051,0.085,0.042,0.194-0.022,0.27l-27.324,32.658
						C225.59,270.548,225.524,270.579,225.454,270.578z M212.056,246.018l13.438,23.915l26.678-31.886L212.056,246.018z"/>
				</g>
				<g id="triangle36_1462_">
					<path style="fill:#C4C4C4;" d="M341.716,105.559c-0.019,0-0.039-0.002-0.058-0.008c-0.125-0.032-0.201-0.16-0.168-0.286
						l12.907-49.711c0.032-0.125,0.159-0.202,0.286-0.168c0.125,0.032,0.201,0.16,0.168,0.286l-12.906,49.711
						C341.916,105.489,341.82,105.56,341.716,105.559z"/>
				</g>
				<g id="triangle36_1316_">
					<path style="fill:#C4C4C4;" d="M341.716,105.559c-0.052,0-0.105-0.018-0.147-0.053c-0.071-0.058-0.102-0.152-0.079-0.241
						l12.907-49.711c0.016-0.062,0.056-0.114,0.112-0.146c0.056-0.031,0.122-0.038,0.182-0.02l54.232,16.326
						c0.092,0.028,0.158,0.109,0.166,0.205c0.008,0.096-0.043,0.187-0.129,0.23l-67.138,33.385
						C341.787,105.551,341.752,105.559,341.716,105.559z M354.789,55.908l-12.716,48.976l66.147-32.892L354.789,55.908z"/>
				</g>
				<g id="triangle36_1315_">
					<path style="fill:#C4C4C4;" d="M360.836,168.692c-0.102-0.001-0.193-0.067-0.223-0.167l-19.12-63.133
						c-0.029-0.096,0.006-0.2,0.088-0.258c0.081-0.059,0.191-0.06,0.273-0.001l78.717,56.227c0.079,0.056,0.115,0.156,0.091,0.249
						c-0.024,0.094-0.104,0.164-0.2,0.174l-59.596,6.906C360.854,168.691,360.845,168.692,360.836,168.692z M342.141,105.916
						l18.864,62.285l58.796-6.814L342.141,105.916z"/>
				</g>
				<g id="triangle36_1314_">
					<path style="fill:#C4C4C4;" d="M420.432,161.786c-0.048,0-0.095-0.015-0.135-0.044l-78.716-56.227
						c-0.067-0.048-0.104-0.127-0.098-0.209c0.007-0.082,0.056-0.155,0.13-0.191l67.138-33.385c0.067-0.035,0.147-0.033,0.215,0.003
						c0.067,0.036,0.112,0.102,0.122,0.177l11.578,89.611c0.012,0.093-0.032,0.183-0.112,0.231
						C420.516,161.775,420.474,161.786,420.432,161.786z M342.171,105.36l77.96,55.687l-11.467-88.75L342.171,105.36z"/>
				</g>
				<g id="triangle36_1165_">
					<path style="fill:#C4C4C4;" d="M319.874,212.91c-0.064,0-0.127-0.027-0.173-0.077c-0.082-0.09-0.08-0.228,0.002-0.317
						l40.962-44.218c0.06-0.064,0.149-0.09,0.235-0.067c0.085,0.024,0.149,0.092,0.167,0.179l2.409,11.643
						c0.018,0.089-0.016,0.18-0.089,0.235l-43.371,32.576C319.973,212.895,319.923,212.91,319.874,212.91z M360.7,168.951
						l-38.88,41.97l41.167-30.919L360.7,168.951z"/>
				</g>
				<g id="triangle36_1164_">
					<path style="fill:#C4C4C4;" d="M319.874,212.91c-0.092-0.001-0.177-0.055-0.214-0.142c-0.043-0.1-0.012-0.215,0.074-0.281
						l43.371-32.576c0.085-0.062,0.199-0.062,0.282,0l27.361,20.609c0.075,0.057,0.109,0.152,0.087,0.243s-0.097,0.16-0.189,0.176
						l-70.732,11.967C319.9,212.909,319.887,212.91,319.874,212.91z M363.246,180.393l-42.458,31.889l69.243-11.715L363.246,180.393
						z"/>
				</g>
				<g id="triangle36_1160_">
					<path style="fill:#C4C4C4;" d="M386.525,274.89c-0.058,0-0.115-0.022-0.159-0.063l-66.652-61.98
						c-0.065-0.061-0.09-0.154-0.065-0.239c0.026-0.086,0.097-0.149,0.186-0.164l70.732-11.967c0.069-0.013,0.142,0.009,0.195,0.056
						c0.053,0.048,0.082,0.117,0.078,0.188l-4.081,73.947c-0.005,0.091-0.062,0.171-0.146,0.204
						C386.585,274.884,386.555,274.89,386.525,274.89z M320.383,212.827l65.937,61.315l4.037-73.153L320.383,212.827z"/>
				</g>
				<g id="triangle36_1159_">
					<path style="fill:#C4C4C4;" d="M601.158,149.756l-81.177,51.095l26.211-99.047l55.091,23.273l0.003-0.508l-55.161-23.303
						c-0.062-0.026-0.134-0.025-0.195,0.006c-0.061,0.03-0.106,0.085-0.124,0.151l-26.433,99.884
						c-0.024,0.093,0.01,0.192,0.088,0.249c0.041,0.03,0.089,0.045,0.138,0.046c0.044,0,0.088-0.012,0.126-0.036l81.428-51.253
						L601.158,149.756z"/>
				</g>
				<g id="triangle36_1158_">
					<path style="fill:#C4C4C4;" d="M600.94,192.414l-80.356,8.612l80.57-50.713l0.003-0.556l-81.681,51.412
						c-0.093,0.058-0.133,0.173-0.097,0.275c0.033,0.095,0.122,0.157,0.221,0.158c0.009,0,0.017,0,0.026-0.001l81.311-8.714
						L600.94,192.414z"/>
				</g>
				<g id="triangle36_1153_">
					<path style="fill:#C4C4C4;" d="M601.286,124.569l-53.904-22.772l54.004,3.184l0.002-0.47l-55.34-3.263
						c-0.128-0.01-0.217,0.069-0.242,0.181c-0.026,0.111,0.032,0.225,0.137,0.27l55.341,23.379L601.286,124.569z"/>
				</g>
				<g id="triangle36_1145_">
					<path style="fill:#C4C4C4;" d="M225.454,270.578c-0.073,0-0.144-0.035-0.188-0.097c-0.064-0.087-0.059-0.206,0.01-0.289
						l27.324-32.658c0.044-0.053,0.11-0.084,0.179-0.084l54.008-0.189c0,0,0.001,0,0.002,0c0.112,0.001,0.208,0.08,0.229,0.189
						c0.021,0.111-0.038,0.221-0.142,0.263l-81.332,32.847C225.514,270.573,225.484,270.579,225.454,270.578z M252.889,237.921
						l-26.652,31.854l79.332-32.039L252.889,237.921z"/>
				</g>
				<g id="triangle36_1144_">
					<path style="fill:#C4C4C4;" d="M291.224,323.947c-0.053,0-0.104-0.018-0.147-0.053l-65.77-53.369
						c-0.064-0.052-0.096-0.135-0.084-0.217c0.012-0.082,0.067-0.152,0.144-0.183l81.332-32.847
						c0.078-0.031,0.169-0.018,0.236,0.036c0.066,0.054,0.098,0.14,0.083,0.224l-15.562,86.216
						c-0.015,0.082-0.071,0.149-0.149,0.178C291.28,323.943,291.252,323.948,291.224,323.947z M225.912,270.412l65.152,52.868
						l15.416-85.407L225.912,270.412z"/>
				</g>
				<g id="triangle36_1142_">
					<path style="fill:#C4C4C4;" d="M252.778,237.921c-0.113-0.001-0.209-0.081-0.229-0.193c-0.021-0.112,0.042-0.222,0.149-0.262
						l67.096-25.011c0.091-0.033,0.194-0.009,0.258,0.065c0.064,0.073,0.077,0.178,0.031,0.264l-13.088,24.821
						c-0.04,0.077-0.12,0.125-0.207,0.125l-54.008,0.19C252.779,237.921,252.778,237.921,252.778,237.921z M319.38,213.11
						l-65.287,24.337l52.552-0.184L319.38,213.11z"/>
				</g>
				<g id="triangle36_1141_">
					<path style="fill:#C4C4C4;" d="M291.224,323.947c-0.049,0-0.098-0.016-0.138-0.046c-0.072-0.053-0.108-0.142-0.091-0.23
						l15.562-86.216c0.013-0.072,0.058-0.133,0.123-0.167c0.064-0.033,0.141-0.034,0.207-0.005l79.74,37.158
						c0.081,0.038,0.134,0.118,0.135,0.208c0.002,0.09-0.048,0.173-0.127,0.213l-95.302,49.058
						C291.298,323.939,291.261,323.948,291.224,323.947z M306.964,237.838l-15.424,85.448l94.453-48.621L306.964,237.838z"/>
				</g>
				<g id="triangle36_1140_">
					<path style="fill:#C4C4C4;" d="M386.525,274.89c-0.033,0-0.066-0.007-0.098-0.022l-79.74-37.158
						c-0.058-0.027-0.103-0.077-0.123-0.138c-0.021-0.061-0.015-0.128,0.015-0.184l13.088-24.821
						c0.034-0.065,0.096-0.11,0.168-0.122c0.07-0.013,0.145,0.01,0.199,0.059l66.652,61.98c0.084,0.079,0.099,0.207,0.035,0.303
						C386.676,274.853,386.602,274.89,386.525,274.89z M307.109,237.388l78.168,36.426l-65.338-60.758L307.109,237.388z"/>
				</g>
				<g id="triangle36_1139_">
					<path style="fill:#C4C4C4;" d="M600.691,241.183l-27.609-10.284l27.743-15.923l0.003-0.543l-28.413,16.307
						c-0.079,0.045-0.124,0.132-0.117,0.223c0.007,0.09,0.066,0.169,0.152,0.201l28.239,10.518L600.691,241.183z"/>
				</g>
				<g id="triangle36_1460_">
					<path style="fill:#C4C4C4;" d="M354.622,55.848c-0.075,0-0.149-0.037-0.194-0.104c-0.072-0.108-0.043-0.254,0.065-0.326
						l54.191-36.242c0.107-0.072,0.253-0.043,0.326,0.065c0.072,0.108,0.043,0.254-0.065,0.325l-54.191,36.242
						C354.713,55.836,354.667,55.848,354.622,55.848z"/>
				</g>
				<g id="triangle36_1126_">
					<path style="fill:#C4C4C4;" d="M408.854,72.174c-0.022,0-0.044-0.003-0.066-0.01l-54.232-16.326
						c-0.087-0.026-0.151-0.1-0.164-0.19c-0.013-0.09,0.026-0.179,0.102-0.23l54.191-36.242c0.072-0.048,0.164-0.052,0.241-0.012
						c0.076,0.041,0.124,0.12,0.124,0.207l0.041,52.568c0,0.074-0.035,0.144-0.094,0.188
						C408.954,72.159,408.904,72.174,408.854,72.174z M355.167,55.532l53.453,16.092l-0.04-51.814L355.167,55.532z"/>
				</g>
				<g id="triangle36_1121_">
					<path style="fill:#C4C4C4;" d="M408.854,72.174c-0.044,0-0.088-0.013-0.126-0.038c-0.067-0.043-0.107-0.117-0.107-0.197
						l-0.041-52.568c0-0.082,0.043-0.158,0.113-0.201c0.071-0.043,0.157-0.045,0.231-0.007l53.862,28.42
						c0.079,0.042,0.128,0.125,0.125,0.215c-0.003,0.089-0.057,0.17-0.139,0.206l-53.821,24.148
						C408.92,72.168,408.887,72.174,408.854,72.174z M409.049,19.761l0.04,51.817l53.052-23.803L409.049,19.761z"/>
				</g>
				<g id="triangle36_1117_">
					<path style="fill:#C4C4C4;" d="M462.675,48.026c-0.037,0-0.074-0.009-0.108-0.027l-53.862-28.42
						c-0.103-0.055-0.151-0.177-0.111-0.287l28.174-78.243c0.035-0.097,0.134-0.168,0.234-0.155
						c0.104,0.006,0.191,0.078,0.215,0.179l25.688,106.663c0.022,0.09-0.011,0.183-0.084,0.24
						C462.778,48.009,462.726,48.026,462.675,48.026z M409.104,19.259l53.222,28.082L436.944-58.056L409.104,19.259z"/>
				</g>
				<g id="triangle36_1116_">
					<path style="fill:#C4C4C4;" d="M600.525,273.716l-51.735,34.925l23.832-77.197l27.935,35.945l0.004-0.76l-27.845-35.829
						c-0.053-0.069-0.138-0.102-0.228-0.087c-0.086,0.016-0.156,0.078-0.182,0.161l-24.162,78.264
						c-0.029,0.095,0.005,0.199,0.084,0.258c0.041,0.03,0.09,0.046,0.139,0.046c0.046,0,0.092-0.013,0.133-0.04l52.022-35.118
						L600.525,273.716z"/>
				</g>
				<g id="triangle36_1115_">
					<path style="fill:#C4C4C4;" d="M600.28,321.862l-51.342-12.754l51.585-34.823l0.003-0.568l-52.288,35.298
						c-0.077,0.052-0.116,0.144-0.1,0.236c0.016,0.091,0.085,0.165,0.175,0.187l51.965,12.909L600.28,321.862z"/>
				</g>
				<g id="triangle36_1114_">
					<path style="fill:#C4C4C4;" d="M600.562,266.629l-27.338-35.177l27.465,10.23l0.003-0.5l-28.078-10.458
						c-0.097-0.037-0.209-0.003-0.271,0.081c-0.062,0.084-0.061,0.2,0.004,0.283l28.212,36.301L600.562,266.629z"/>
				</g>
			</g>
			<g>
				<g>
					<path style="fill:#C4C4C4;" d="M561.242-96.738c-1.351-0.007-2.453,1.083-2.459,2.434c-0.007,1.352,1.083,2.453,2.435,2.46
						c1.351,0.007,2.453-1.083,2.46-2.435C563.684-95.63,562.594-96.731,561.242-96.738z"/>
					<path style="fill:#231F20;" d="M561.242-96.738c1.352,0.007,2.442,1.108,2.435,2.459c-0.007,1.352-1.108,2.441-2.46,2.435
						c-1.352-0.007-2.442-1.108-2.435-2.46C558.789-95.655,559.891-96.745,561.242-96.738 M561.247-97.677
						c-1.867-0.009-3.393,1.502-3.403,3.368c-0.01,1.867,1.502,3.393,3.369,3.403c1.867,0.01,3.393-1.501,3.403-3.368
						C564.625-96.141,563.114-97.667,561.247-97.677L561.247-97.677z"/>
				</g>
				<g>
					<path style="fill:#C4C4C4;" d="M177.147,302.78c-0.834-0.004-1.513,0.668-1.518,1.502c-0.004,0.834,0.668,1.513,1.502,1.518
						c0.834,0.004,1.513-0.668,1.518-1.502C178.653,303.464,177.98,302.784,177.147,302.78z"/>
					<path style="fill:#231F20;" d="M177.147,302.78c0.834,0.004,1.507,0.684,1.502,1.518c-0.004,0.834-0.684,1.507-1.518,1.502
						c-0.834-0.004-1.506-0.684-1.502-1.518C175.633,303.448,176.313,302.776,177.147,302.78 M177.151,301.841
						c-1.35-0.007-2.454,1.086-2.461,2.436s1.086,2.454,2.436,2.461c1.35,0.007,2.454-1.086,2.461-2.436
						S178.501,301.848,177.151,301.841L177.151,301.841z"/>
				</g>
				<g>
					<path style="fill:#C4C4C4;" d="M205.449,320.254c-1.154-0.006-2.095,0.925-2.101,2.08c-0.006,1.155,0.925,2.095,2.08,2.101
						c1.154,0.006,2.095-0.925,2.101-2.08C207.535,321.201,206.604,320.26,205.449,320.254z"/>
					<path style="fill:#231F20;" d="M205.449,320.254c1.155,0.006,2.086,0.947,2.08,2.101c-0.006,1.154-0.947,2.086-2.101,2.08
						c-1.155-0.006-2.086-0.947-2.08-2.101C203.354,321.18,204.295,320.248,205.449,320.254 M205.454,319.316
						c-1.67-0.009-3.036,1.343-3.044,3.014c-0.009,1.67,1.343,3.036,3.014,3.045c1.67,0.008,3.036-1.343,3.044-3.014
						C208.476,320.69,207.124,319.324,205.454,319.316L205.454,319.316z"/>
				</g>
				<g>
					<path style="fill:#C4C4C4;" d="M590.931,72.451c-1.002-0.005-1.818,0.803-1.823,1.804c-0.005,1.001,0.803,1.818,1.804,1.823
						c1.001,0.005,1.818-0.803,1.823-1.804C592.74,73.272,591.932,72.456,590.931,72.451z"/>
					<path style="fill:#231F20;" d="M590.931,72.451c1.001,0.005,1.809,0.821,1.804,1.823c-0.005,1.002-0.821,1.809-1.823,1.804
						c-1.001-0.005-1.809-0.821-1.804-1.823C589.114,73.254,589.93,72.446,590.931,72.451 M590.936,71.512
						c-1.517-0.008-2.758,1.221-2.766,2.738c-0.008,1.518,1.22,2.758,2.738,2.766c1.518,0.008,2.758-1.221,2.766-2.738
						C593.681,72.761,592.453,71.52,590.936,71.512L590.936,71.512z"/>
				</g>
				<g>
					<circle style="fill:#C4C4C4;" cx="470.639" cy="120.171" r="3.109"/>
					<path style="fill:#231F20;" d="M470.655,117.063c1.717,0.009,3.102,1.408,3.093,3.124c-0.009,1.717-1.408,3.102-3.124,3.093
						c-1.717-0.009-3.102-1.408-3.093-3.124C467.539,118.438,468.938,117.054,470.655,117.063 M470.66,116.124
						c-2.232-0.011-4.057,1.795-4.068,4.027c-0.011,2.232,1.795,4.057,4.027,4.068c2.232,0.011,4.057-1.795,4.068-4.027
						C474.698,117.96,472.891,116.135,470.66,116.124L470.66,116.124z"/>
				</g>
				<g>
					<path style="fill:#C4C4C4;" d="M513.109,101.78c0.004-0.735-0.589-1.334-1.324-1.338c-0.736-0.004-1.334,0.589-1.338,1.324
						c-0.004,0.735,0.589,1.334,1.324,1.338C512.506,103.108,513.105,102.515,513.109,101.78z"/>
					<path style="fill:#231F20;" d="M511.785,100.442c0.735,0.004,1.328,0.603,1.324,1.338c-0.004,0.735-0.603,1.328-1.338,1.324
						c-0.735-0.004-1.328-0.603-1.324-1.338C510.45,101.031,511.049,100.438,511.785,100.442 M511.789,99.503
						c-1.252-0.006-2.275,1.007-2.281,2.258c-0.006,1.252,1.007,2.275,2.258,2.281c1.252,0.006,2.275-1.007,2.281-2.258
						C514.054,100.533,513.041,99.509,511.789,99.503L511.789,99.503z"/>
				</g>
				<g>
					<path style="fill:#C4C4C4;" d="M545.875,72.213c1.692,0.009,3.07-1.356,3.078-3.047c0.009-1.692-1.356-3.07-3.047-3.079
						c-1.692-0.009-3.07,1.356-3.078,3.047C542.819,70.826,544.184,72.204,545.875,72.213z"/>
					<path style="fill:#231F20;" d="M545.907,66.087c1.692,0.009,3.056,1.387,3.047,3.079c-0.009,1.692-1.387,3.056-3.078,3.047
						c-1.692-0.009-3.056-1.387-3.047-3.078C542.837,67.443,544.215,66.078,545.907,66.087 M545.911,65.148
						c-2.207-0.011-4.011,1.775-4.022,3.981c-0.011,2.206,1.775,4.011,3.981,4.022c2.207,0.011,4.011-1.775,4.022-3.981
						C549.904,66.964,548.118,65.16,545.911,65.148L545.911,65.148z"/>
				</g>
				<g>
					<path style="fill:#C4C4C4;" d="M547.641-80.404c0.005-1.057-0.847-1.917-1.903-1.923c-1.057-0.005-1.918,0.847-1.923,1.903
						c-0.005,1.057,0.847,1.917,1.903,1.923C546.775-78.496,547.636-79.348,547.641-80.404z"/>
					<path style="fill:#231F20;" d="M545.738-82.327c1.057,0.005,1.909,0.866,1.903,1.923c-0.005,1.057-0.866,1.909-1.923,1.903
						c-1.057-0.005-1.909-0.866-1.903-1.923C543.821-81.48,544.682-82.333,545.738-82.327 M545.743-83.266
						c-1.573-0.008-2.858,1.265-2.866,2.837c-0.008,1.572,1.265,2.858,2.837,2.866c1.573,0.008,2.858-1.265,2.866-2.837
						C548.588-81.972,547.315-83.258,545.743-83.266L545.743-83.266z"/>
				</g>
				<g>
					<path style="fill:#C4C4C4;" d="M406.693,193.138c-1.528-0.008-2.774,1.225-2.781,2.753c-0.008,1.528,1.225,2.774,2.753,2.782
						s2.774-1.225,2.782-2.753C409.454,194.391,408.222,193.146,406.693,193.138z"/>
					<path style="fill:#231F20;" d="M406.693,193.138c1.529,0.008,2.761,1.253,2.753,2.782c-0.008,1.528-1.253,2.761-2.782,2.753
						s-2.761-1.253-2.753-2.782C403.919,194.363,405.165,193.13,406.693,193.138 M406.698,192.2
						c-2.044-0.01-3.715,1.644-3.725,3.687c-0.01,2.044,1.644,3.715,3.687,3.725c2.044,0.01,3.715-1.644,3.725-3.687
						C410.396,193.881,408.742,192.21,406.698,192.2L406.698,192.2z"/>
				</g>
				<g>
					<path style="fill:#C4C4C4;" d="M449.031,302.602c-1.313-0.007-2.383,1.052-2.389,2.365c-0.007,1.313,1.052,2.383,2.365,2.389
						c1.313,0.007,2.383-1.052,2.389-2.365C451.403,303.679,450.344,302.609,449.031,302.602z"/>
					<path style="fill:#231F20;" d="M449.031,302.602c1.313,0.007,2.372,1.077,2.365,2.389c-0.007,1.313-1.077,2.372-2.389,2.365
						c-1.313-0.007-2.372-1.076-2.365-2.389C446.648,303.655,447.718,302.596,449.031,302.602 M449.036,301.664
						c-1.828-0.009-3.323,1.471-3.333,3.299c-0.009,1.828,1.471,3.323,3.299,3.333c1.828,0.009,3.323-1.471,3.333-3.299
						C452.344,303.168,450.864,301.673,449.036,301.664L449.036,301.664z"/>
				</g>
				<g>
					<path style="fill:#C4C4C4;" d="M478.299,312.281c-1.702-0.009-3.09,1.364-3.098,3.067c-0.009,1.702,1.364,3.09,3.067,3.098
						c1.702,0.009,3.09-1.364,3.098-3.067C481.375,313.677,480.002,312.29,478.299,312.281z"/>
					<path style="fill:#231F20;" d="M478.299,312.281c1.703,0.009,3.076,1.396,3.067,3.098c-0.009,1.702-1.396,3.076-3.098,3.067
						c-1.703-0.009-3.076-1.396-3.067-3.098C475.21,313.645,476.597,312.272,478.299,312.281 M478.304,311.342
						c-2.217-0.011-4.03,1.783-4.042,4.001c-0.011,2.217,1.783,4.03,4.001,4.042c2.217,0.011,4.03-1.783,4.042-4.001
						C482.316,313.167,480.522,311.354,478.304,311.342L478.304,311.342z"/>
				</g>
				<g>
					<path style="fill:#C4C4C4;" d="M492.18,253.232c-0.953-0.005-1.729,0.764-1.734,1.716c-0.005,0.953,0.764,1.729,1.716,1.734
						c0.953,0.005,1.729-0.764,1.734-1.717C493.901,254.014,493.133,253.237,492.18,253.232z"/>
					<path style="fill:#231F20;" d="M492.18,253.232c0.953,0.005,1.721,0.781,1.716,1.734c-0.005,0.953-0.781,1.721-1.734,1.717
						c-0.953-0.005-1.721-0.781-1.716-1.734C490.45,253.996,491.227,253.227,492.18,253.232 M492.184,252.294
						c-1.469-0.008-2.67,1.182-2.677,2.65c-0.008,1.469,1.181,2.67,2.65,2.678c1.469,0.008,2.67-1.181,2.677-2.65
						C494.842,253.502,493.653,252.301,492.184,252.294L492.184,252.294z"/>
				</g>
				<g>
					<path style="fill:#C4C4C4;" d="M550.359,221.676c-1.845-0.009-3.348,1.478-3.357,3.323c-0.009,1.845,1.478,3.348,3.323,3.357
						c1.845,0.009,3.348-1.478,3.357-3.323C553.692,223.189,552.204,221.686,550.359,221.676z"/>
					<path style="fill:#231F20;" d="M550.359,221.676c1.845,0.009,3.333,1.512,3.323,3.357c-0.009,1.845-1.513,3.333-3.357,3.323
						c-1.845-0.009-3.333-1.513-3.323-3.357C547.011,223.154,548.514,221.667,550.359,221.676 M550.364,220.738
						c-2.359-0.012-4.289,1.898-4.301,4.257c-0.012,2.359,1.898,4.289,4.257,4.301c2.359,0.012,4.288-1.898,4.301-4.257
						C554.633,222.679,552.723,220.749,550.364,220.738L550.364,220.738z"/>
				</g>
				<g>
					<path style="fill:#C4C4C4;" d="M145.15,283.447c-0.759-0.004-1.377,0.608-1.381,1.367c-0.004,0.759,0.608,1.377,1.367,1.381
						c0.759,0.004,1.377-0.608,1.381-1.367C146.521,284.069,145.909,283.451,145.15,283.447z"/>
					<path style="fill:#231F20;" d="M145.15,283.447c0.759,0.004,1.371,0.622,1.367,1.381c-0.004,0.759-0.622,1.371-1.381,1.367
						c-0.759-0.004-1.371-0.622-1.367-1.381C143.773,284.055,144.391,283.443,145.15,283.447 M145.155,282.508
						c-1.275-0.007-2.318,1.026-2.324,2.301c-0.007,1.275,1.026,2.318,2.301,2.324s2.318-1.026,2.324-2.301
						C147.462,283.557,146.43,282.515,145.155,282.508L145.155,282.508z"/>
				</g>
				<g>
					<path style="fill:#C4C4C4;" d="M211.704,243.629c-1.227-0.006-2.227,0.983-2.233,2.21c-0.006,1.227,0.983,2.227,2.21,2.233
						c1.227,0.006,2.227-0.983,2.233-2.21C213.921,244.635,212.931,243.635,211.704,243.629z"/>
					<path style="fill:#231F20;" d="M211.704,243.629c1.227,0.006,2.217,1.006,2.21,2.233c-0.006,1.227-1.006,2.217-2.233,2.21
						c-1.227-0.006-2.217-1.006-2.21-2.233C209.477,244.612,210.477,243.622,211.704,243.629 M211.709,242.69
						c-1.743-0.009-3.168,1.402-3.176,3.144c-0.009,1.743,1.402,3.168,3.144,3.176s3.168-1.402,3.176-3.144
						C214.862,244.124,213.452,242.699,211.709,242.69L211.709,242.69z"/>
				</g>
				<g>
					<path style="fill:#C4C4C4;" d="M341.724,103.983c-0.741-0.004-1.344,0.594-1.348,1.334c-0.004,0.741,0.594,1.344,1.335,1.348
						c0.741,0.004,1.344-0.594,1.348-1.335C343.062,104.59,342.464,103.987,341.724,103.983z"/>
					<path style="fill:#231F20;" d="M341.724,103.983c0.741,0.004,1.338,0.607,1.335,1.348c-0.004,0.741-0.608,1.338-1.348,1.334
						c-0.741-0.004-1.338-0.607-1.335-1.348C340.379,104.577,340.983,103.979,341.724,103.983 M341.728,103.045
						c-1.257-0.006-2.285,1.011-2.292,2.268c-0.006,1.257,1.011,2.285,2.268,2.292c1.257,0.006,2.285-1.011,2.292-2.268
						C344.003,104.079,342.985,103.051,341.728,103.045L341.728,103.045z"/>
				</g>
				<g>
					<path style="fill:#C4C4C4;" d="M420.449,158.493c-1.689-0.009-3.065,1.353-3.073,3.042c-0.009,1.689,1.354,3.065,3.042,3.073
						c1.689,0.009,3.065-1.353,3.073-3.042C423.5,159.878,422.138,158.501,420.449,158.493z"/>
					<path style="fill:#231F20;" d="M420.449,158.493c1.689,0.009,3.051,1.385,3.042,3.073c-0.009,1.689-1.384,3.051-3.073,3.042
						c-1.689-0.009-3.051-1.384-3.042-3.073C417.384,159.846,418.76,158.484,420.449,158.493 M420.454,157.554
						c-2.204-0.011-4.006,1.772-4.017,3.976c-0.011,2.204,1.772,4.005,3.976,4.017c2.204,0.011,4.005-1.772,4.017-3.976
						C424.441,159.367,422.657,157.566,420.454,157.554L420.454,157.554z"/>
				</g>
				<g>
					<path style="fill:#C4C4C4;" d="M360.829,169.983c0.842,0.004,1.529-0.675,1.533-1.518s-0.675-1.529-1.518-1.533
						c-0.842-0.004-1.529,0.675-1.533,1.518S359.986,169.978,360.829,169.983z"/>
					<path style="fill:#231F20;" d="M360.844,166.932c0.842,0.004,1.522,0.691,1.518,1.533s-0.691,1.522-1.533,1.518
						s-1.522-0.691-1.518-1.533S360.002,166.928,360.844,166.932 M360.849,165.993c-1.359-0.007-2.47,1.093-2.477,2.451
						c-0.007,1.359,1.093,2.47,2.452,2.477c1.359,0.007,2.47-1.093,2.477-2.451C363.308,167.111,362.208,166,360.849,165.993
						L360.849,165.993z"/>
				</g>
				<g>
					<path style="fill:#C4C4C4;" d="M363.255,178.375c-0.952-0.005-1.728,0.763-1.733,1.715c-0.005,0.952,0.763,1.728,1.715,1.733
						c0.952,0.005,1.728-0.763,1.733-1.715C364.975,179.156,364.207,178.38,363.255,178.375z"/>
					<path style="fill:#231F20;" d="M363.255,178.375c0.952,0.005,1.72,0.781,1.715,1.733c-0.005,0.952-0.781,1.72-1.733,1.715
						c-0.952-0.005-1.72-0.781-1.716-1.733C361.527,179.139,362.303,178.371,363.255,178.375 M363.26,177.437
						c-1.468-0.007-2.669,1.181-2.677,2.649c-0.007,1.468,1.181,2.669,2.649,2.676c1.468,0.008,2.669-1.181,2.676-2.649
						C365.917,178.645,364.728,177.444,363.26,177.437L363.26,177.437z"/>
				</g>
				<g>
					<path style="fill:#C4C4C4;" d="M390.614,199.359c-0.745-0.004-1.353,0.597-1.357,1.343c-0.004,0.745,0.597,1.353,1.343,1.356
						c0.745,0.004,1.353-0.597,1.356-1.343C391.96,199.97,391.359,199.363,390.614,199.359z"/>
					<path style="fill:#231F20;" d="M390.614,199.359c0.745,0.004,1.346,0.611,1.343,1.356c-0.004,0.745-0.611,1.346-1.357,1.343
						s-1.346-0.611-1.343-1.356C389.261,199.956,389.869,199.355,390.614,199.359 M390.619,198.42
						c-1.262-0.006-2.293,1.015-2.3,2.276c-0.006,1.262,1.015,2.293,2.277,2.3c1.262,0.007,2.293-1.015,2.3-2.276
						C392.902,199.458,391.88,198.426,390.619,198.42L390.619,198.42z"/>
				</g>
				<g>
					<path style="fill:#C4C4C4;" d="M519.614,199.02c-1.296-0.007-2.352,1.039-2.358,2.335s1.039,2.352,2.334,2.359
						c1.296,0.007,2.352-1.039,2.359-2.335C521.955,200.083,520.91,199.027,519.614,199.02z"/>
					<path style="fill:#231F20;" d="M519.614,199.02c1.296,0.007,2.341,1.063,2.335,2.359c-0.007,1.296-1.063,2.341-2.359,2.335
						c-1.296-0.007-2.341-1.063-2.335-2.359C517.262,200.059,518.318,199.014,519.614,199.02 M519.619,198.081
						c-1.811-0.009-3.293,1.457-3.302,3.268c-0.009,1.811,1.457,3.293,3.268,3.302c1.811,0.009,3.293-1.457,3.302-3.268
						C522.896,199.572,521.43,198.091,519.619,198.081L519.619,198.081z"/>
				</g>
				<g>
					<path style="fill:#C4C4C4;" d="M546.048,98.785c-1.49-0.008-2.703,1.194-2.711,2.683c-0.008,1.49,1.194,2.703,2.684,2.711
						c1.49,0.008,2.703-1.194,2.711-2.684C548.74,100.007,547.538,98.793,546.048,98.785z"/>
					<path style="fill:#231F20;" d="M546.048,98.785c1.49,0.008,2.691,1.221,2.684,2.711c-0.008,1.49-1.221,2.691-2.711,2.684
						c-1.49-0.008-2.691-1.221-2.684-2.711C543.345,99.979,544.559,98.778,546.048,98.785 M546.053,97.847
						c-2.005-0.01-3.644,1.612-3.655,3.617s1.613,3.644,3.617,3.655c2.005,0.01,3.644-1.613,3.654-3.617
						C549.681,99.496,548.058,97.857,546.053,97.847L546.053,97.847z"/>
				</g>
				<g>
					<path style="fill:#C4C4C4;" d="M225.47,267.419c-1.615-0.008-2.932,1.295-2.94,2.91c-0.008,1.615,1.295,2.932,2.91,2.94
						c1.615,0.008,2.932-1.295,2.94-2.91C228.388,268.743,227.085,267.427,225.47,267.419z"/>
					<path style="fill:#231F20;" d="M225.47,267.419c1.615,0.008,2.918,1.324,2.91,2.94c-0.008,1.615-1.324,2.918-2.94,2.91
						c-1.615-0.008-2.918-1.324-2.91-2.94C222.538,268.714,223.855,267.411,225.47,267.419 M225.475,266.48
						c-2.13-0.011-3.872,1.714-3.883,3.844c-0.011,2.13,1.713,3.872,3.844,3.883c2.13,0.011,3.872-1.713,3.883-3.844
						C229.329,268.233,227.605,266.491,225.475,266.48L225.475,266.48z"/>
				</g>
				<g>
					<path style="fill:#C4C4C4;" d="M254.464,237.695c0.005-0.93-0.745-1.688-1.676-1.693c-0.93-0.005-1.688,0.745-1.693,1.676
						c-0.005,0.93,0.745,1.688,1.676,1.693C253.701,239.376,254.459,238.625,254.464,237.695z"/>
					<path style="fill:#231F20;" d="M252.788,236.002c0.93,0.005,1.681,0.763,1.676,1.693c-0.005,0.93-0.763,1.68-1.693,1.676
						c-0.93-0.005-1.68-0.763-1.676-1.693C251.1,236.748,251.858,235.997,252.788,236.002 M252.793,235.064
						c-1.446-0.007-2.629,1.163-2.636,2.61c-0.007,1.446,1.163,2.629,2.61,2.636c1.446,0.007,2.629-1.163,2.636-2.609
						C255.41,236.254,254.239,235.071,252.793,235.064L252.793,235.064z"/>
				</g>
				<g>
					<path style="fill:#C4C4C4;" d="M291.238,321.066c-1.462-0.007-2.653,1.171-2.66,2.633c-0.008,1.462,1.171,2.653,2.633,2.66
						c1.462,0.007,2.653-1.171,2.66-2.633C293.879,322.265,292.7,321.074,291.238,321.066z"/>
					<path style="fill:#231F20;" d="M291.238,321.066c1.462,0.008,2.641,1.198,2.633,2.66c-0.007,1.462-1.198,2.64-2.66,2.633
						c-1.462-0.008-2.64-1.198-2.633-2.66C288.586,322.238,289.777,321.059,291.238,321.066 M291.243,320.128
						c-1.977-0.01-3.593,1.59-3.603,3.567c-0.01,1.977,1.59,3.593,3.567,3.603c1.977,0.01,3.593-1.59,3.603-3.567
						C294.82,321.754,293.22,320.138,291.243,320.128L291.243,320.128z"/>
				</g>
				<g>
					<path style="fill:#C4C4C4;" d="M306.801,234.73c-1.528-0.008-2.774,1.225-2.781,2.753c-0.008,1.528,1.225,2.774,2.753,2.782
						c1.528,0.008,2.774-1.225,2.781-2.753C309.562,235.983,308.329,234.737,306.801,234.73z"/>
					<path style="fill:#231F20;" d="M306.801,234.73c1.528,0.008,2.761,1.253,2.753,2.781c-0.008,1.528-1.253,2.761-2.781,2.753
						c-1.528-0.008-2.761-1.253-2.753-2.782C304.027,235.954,305.272,234.722,306.801,234.73 M306.806,233.791
						c-2.044-0.01-3.714,1.644-3.725,3.687c-0.01,2.043,1.643,3.714,3.687,3.725c2.043,0.01,3.714-1.644,3.725-3.687
						C310.503,235.472,308.849,233.801,306.806,233.791L306.806,233.791z"/>
				</g>
				<g>
					<path style="fill:#C4C4C4;" d="M386.539,272.241c-1.333-0.007-2.419,1.068-2.426,2.402c-0.007,1.333,1.068,2.419,2.401,2.426
						c1.333,0.007,2.419-1.068,2.426-2.402C388.947,273.334,387.872,272.248,386.539,272.241z"/>
					<path style="fill:#231F20;" d="M386.539,272.241c1.333,0.007,2.408,1.093,2.402,2.426s-1.093,2.408-2.426,2.401
						c-1.333-0.007-2.408-1.093-2.402-2.426C384.119,273.31,385.206,272.234,386.539,272.241 M386.544,271.302
						c-1.849-0.009-3.36,1.487-3.37,3.335c-0.009,1.848,1.487,3.36,3.336,3.37c1.849,0.009,3.36-1.487,3.37-3.335
						C389.888,272.824,388.392,271.312,386.544,271.302L386.544,271.302z"/>
				</g>
				<g>
					<path style="fill:#C4C4C4;" d="M319.884,210.903c-0.978-0.005-1.776,0.784-1.781,1.763c-0.005,0.979,0.784,1.776,1.763,1.781
						c0.979,0.005,1.776-0.784,1.781-1.763C321.651,211.706,320.862,210.908,319.884,210.903z"/>
					<path style="fill:#231F20;" d="M319.884,210.904c0.979,0.005,1.768,0.802,1.763,1.781c-0.005,0.979-0.802,1.768-1.781,1.763
						c-0.978-0.005-1.768-0.802-1.763-1.781C318.108,211.688,318.905,210.898,319.884,210.904 M319.889,209.965
						c-1.495-0.008-2.717,1.202-2.724,2.697c-0.008,1.494,1.202,2.717,2.697,2.724c1.495,0.008,2.717-1.202,2.724-2.697
						C322.593,211.195,321.383,209.973,319.889,209.965L319.889,209.965z"/>
				</g>
				<g>
					<path style="fill:#C4C4C4;" d="M354.634,53.494c-1.171-0.006-2.124,0.938-2.13,2.109c-0.006,1.171,0.938,2.124,2.109,2.13
						s2.124-0.938,2.13-2.109C356.749,54.454,355.805,53.5,354.634,53.494z"/>
					<path style="fill:#231F20;" d="M354.634,53.494c1.171,0.006,2.115,0.96,2.109,2.13c-0.006,1.171-0.96,2.115-2.13,2.109
						s-2.115-0.96-2.109-2.13C352.51,54.432,353.464,53.488,354.634,53.494 M354.639,52.555c-1.686-0.009-3.065,1.356-3.074,3.042
						c-0.009,1.686,1.356,3.065,3.043,3.074c1.686,0.009,3.065-1.356,3.074-3.042C357.69,53.943,356.325,52.564,354.639,52.555
						L354.639,52.555z"/>
				</g>
				<g>
					<path style="fill:#C4C4C4;" d="M408.863,70.365c-0.869-0.004-1.578,0.697-1.582,1.566c-0.004,0.869,0.697,1.578,1.566,1.582
						c0.869,0.005,1.578-0.697,1.582-1.566C410.434,71.078,409.732,70.37,408.863,70.365z"/>
					<path style="fill:#231F20;" d="M408.863,70.365c0.869,0.005,1.571,0.713,1.566,1.582c-0.004,0.869-0.713,1.571-1.582,1.566
						c-0.869-0.004-1.571-0.713-1.566-1.582C407.285,71.062,407.993,70.361,408.863,70.365 M408.868,69.427
						c-1.386-0.007-2.519,1.114-2.526,2.5c-0.007,1.386,1.115,2.519,2.5,2.526c1.386,0.007,2.519-1.115,2.526-2.5
						C411.375,70.567,410.253,69.434,408.868,69.427L408.868,69.427z"/>
				</g>
				<g>
					<path style="fill:#C4C4C4;" d="M414.509-68.466c-1.382-0.007-2.508,1.107-2.515,2.489c-0.007,1.382,1.107,2.507,2.489,2.514
						c1.382,0.007,2.508-1.107,2.515-2.489C417.005-67.334,415.891-68.46,414.509-68.466z"/>
					<path style="fill:#231F20;" d="M414.509-68.466c1.382,0.007,2.496,1.133,2.489,2.514c-0.007,1.382-1.133,2.496-2.515,2.489
						c-1.382-0.007-2.496-1.133-2.489-2.514C412.002-67.359,413.127-68.474,414.509-68.466 M414.514-69.405
						c-1.897-0.01-3.448,1.526-3.458,3.423s1.526,3.448,3.423,3.458c1.897,0.01,3.448-1.526,3.458-3.423
						C417.946-67.844,416.411-69.396,414.514-69.405L414.514-69.405z"/>
				</g>
				<g>
					<path style="fill:#C4C4C4;" d="M408.797,22.76c1.872,0.01,3.396-1.5,3.406-3.372c0.01-1.872-1.5-3.396-3.371-3.406
						c-1.871-0.01-3.396,1.5-3.406,3.371C405.416,21.226,406.926,22.75,408.797,22.76z"/>
					<path style="fill:#231F20;" d="M408.832,15.983c1.872,0.009,3.381,1.534,3.371,3.406c-0.009,1.872-1.534,3.381-3.406,3.372
						c-1.872-0.01-3.381-1.535-3.371-3.406C405.435,17.483,406.96,15.973,408.832,15.983 M408.837,15.044
						c-2.386-0.012-4.337,1.919-4.349,4.305c-0.012,2.386,1.919,4.337,4.305,4.35c2.386,0.012,4.337-1.919,4.35-4.305
						C413.154,17.007,411.223,15.056,408.837,15.044L408.837,15.044z"/>
				</g>
				<g>
					<path style="fill:#C4C4C4;" d="M462.685,46.062c-0.955-0.005-1.733,0.765-1.738,1.721c-0.005,0.955,0.766,1.734,1.721,1.738
						c0.955,0.005,1.734-0.766,1.738-1.721C464.41,46.845,463.64,46.066,462.685,46.062z"/>
					<path style="fill:#231F20;" d="M462.685,46.062c0.955,0.005,1.725,0.783,1.721,1.738c-0.005,0.955-0.783,1.726-1.738,1.721
						c-0.955-0.005-1.726-0.783-1.721-1.738C460.951,46.827,461.729,46.057,462.685,46.062 M462.689,45.123
						c-1.471-0.008-2.674,1.183-2.682,2.654c-0.007,1.471,1.183,2.674,2.655,2.682s2.674-1.183,2.682-2.655
						C465.352,46.333,464.161,45.131,462.689,45.123L462.689,45.123z"/>
				</g>
				<g>
					<path style="fill:#C4C4C4;" d="M436.998-60.795c-1.062-0.005-1.927,0.851-1.933,1.913c-0.005,1.062,0.851,1.927,1.913,1.933
						c1.062,0.006,1.927-0.851,1.933-1.913C438.917-59.924,438.06-60.789,436.998-60.795z"/>
					<path style="fill:#231F20;" d="M436.998-60.795c1.062,0.005,1.919,0.871,1.913,1.933c-0.005,1.062-0.871,1.918-1.933,1.913
						c-1.062-0.005-1.918-0.871-1.913-1.933C435.071-59.944,435.936-60.8,436.998-60.795 M437.003-61.733
						c-1.578-0.008-2.868,1.269-2.876,2.847c-0.008,1.578,1.269,2.868,2.847,2.876c1.578,0.008,2.868-1.269,2.876-2.847
						C439.858-60.435,438.581-61.725,437.003-61.733L437.003-61.733z"/>
				</g>
				<g>
					<path style="fill:#C4C4C4;" d="M548.378,307.412c-0.993-0.005-1.801,0.795-1.806,1.787c-0.005,0.992,0.795,1.801,1.787,1.806
						c0.992,0.005,1.801-0.795,1.806-1.787C550.171,308.225,549.37,307.417,548.378,307.412z"/>
					<path style="fill:#231F20;" d="M548.378,307.412c0.992,0.005,1.792,0.813,1.787,1.806c-0.005,0.992-0.814,1.792-1.806,1.787
						c-0.992-0.005-1.792-0.813-1.787-1.806C546.578,308.207,547.386,307.407,548.378,307.412 M548.383,306.473
						c-1.508-0.008-2.742,1.213-2.749,2.721s1.213,2.741,2.721,2.749c1.508,0.008,2.742-1.213,2.749-2.721
						S549.891,306.481,548.383,306.473L548.383,306.473z"/>
				</g>
				<g>
					<circle style="fill:#C4C4C4;" cx="572.531" cy="230.945" r="2.236"/>
					<path style="fill:#231F20;" d="M572.543,228.709c1.235,0.006,2.231,1.012,2.225,2.247c-0.006,1.235-1.013,2.231-2.247,2.225
						c-1.235-0.006-2.231-1.012-2.225-2.247C570.302,229.698,571.308,228.702,572.543,228.709 M572.548,227.77
						c-1.751-0.009-3.182,1.408-3.191,3.159c-0.009,1.75,1.408,3.182,3.159,3.191c1.75,0.009,3.182-1.408,3.191-3.158
						C575.715,229.21,574.298,227.779,572.548,227.77L572.548,227.77z"/>
				</g>
			</g>
		</g>
	</g>
</g>
</svg>
